# Blender v2.83.0 OBJ File: 'block.blend'
# www.blender.org
mtllib block.mtl
o Cube
v 1.498655 0.132052 -1.501959
v 1.498655 -0.132052 -1.501959
v 0.497761 0.132052 -1.501959
v 0.497761 -0.132052 -1.501959
v 0.497761 0.132052 -1.201731
v 0.497761 -0.132052 -1.201731
v 1.209327 -0.132052 -1.201731
v 1.209327 0.132052 -1.201731
v 1.498655 0.132052 -0.501838
v 1.498655 -0.132052 -0.501838
v 1.209327 -0.132052 -0.501838
v 1.209327 0.132052 -0.501838
vt 0.625000 0.500000
vt 0.625000 0.750000
vt 0.375000 0.750000
vt 0.375000 0.500000
vt 0.375000 0.000000
vt 0.625000 0.000000
vt 0.625000 0.250000
vt 0.375000 0.250000
vt 0.312500 0.750000
vt 0.125000 0.750000
vt 0.125000 0.500000
vt 0.312500 0.750000
vt 0.625000 0.812500
vt 0.375000 0.812500
vt 0.375000 0.812500
vt 0.625000 0.812500
vt 0.875000 0.500000
vt 0.875000 0.750000
vt 0.687500 0.750000
vt 0.687500 0.750000
vt 0.625000 1.000000
vt 0.375000 1.000000
vn 1.0000 0.0000 0.0000
vn -1.0000 0.0000 0.0000
vn 0.0000 -1.0000 0.0000
vn 0.0000 0.0000 1.0000
vn 0.0000 1.0000 0.0000
vn 0.0000 0.0000 -1.0000
usemtl Material
s off
f 1/1/1 9/2/1 10/3/1 2/4/1
f 6/5/2 5/6/2 3/7/2 4/8/2
f 7/9/3 6/10/3 4/11/3 2/4/3 10/3/3 11/12/3
f 8/13/2 7/14/2 11/15/2 12/16/2
f 10/3/4 9/2/4 12/16/4 11/15/4
f 1/1/5 3/17/5 5/18/5 8/19/5 12/20/5 9/2/5
f 7/14/4 8/13/4 5/21/4 6/22/4
f 1/1/6 2/4/6 4/8/6 3/7/6
o Cube.001_Cube.002
v 1.501959 0.132052 1.498655
v 1.501959 -0.132052 1.498655
v 1.501959 0.132052 0.497761
v 1.501959 -0.132052 0.497761
v 1.201731 0.132052 0.497761
v 1.201731 -0.132052 0.497761
v 1.201731 -0.132052 1.209328
v 1.201731 0.132052 1.209328
v 0.501838 0.132052 1.498655
v 0.501838 -0.132052 1.498655
v 0.501838 -0.132052 1.209328
v 0.501838 0.132052 1.209328
vt 0.625000 0.500000
vt 0.625000 0.750000
vt 0.375000 0.750000
vt 0.375000 0.500000
vt 0.375000 0.000000
vt 0.625000 0.000000
vt 0.625000 0.250000
vt 0.375000 0.250000
vt 0.312500 0.750000
vt 0.125000 0.750000
vt 0.125000 0.500000
vt 0.312500 0.750000
vt 0.625000 0.812500
vt 0.375000 0.812500
vt 0.375000 0.812500
vt 0.625000 0.812500
vt 0.875000 0.500000
vt 0.875000 0.750000
vt 0.687500 0.750000
vt 0.687500 0.750000
vt 0.625000 1.000000
vt 0.375000 1.000000
vn 0.0000 0.0000 1.0000
vn 0.0000 0.0000 -1.0000
vn 0.0000 -1.0000 0.0000
vn -1.0000 0.0000 0.0000
vn 0.0000 1.0000 0.0000
vn 1.0000 0.0000 -0.0000
usemtl Material.002
s off
f 13/23/7 21/24/7 22/25/7 14/26/7
f 18/27/8 17/28/8 15/29/8 16/30/8
f 19/31/9 18/32/9 16/33/9 14/26/9 22/25/9 23/34/9
f 20/35/8 19/36/8 23/37/8 24/38/8
f 22/25/10 21/24/10 24/38/10 23/37/10
f 13/23/11 15/39/11 17/40/11 20/41/11 24/42/11 21/24/11
f 19/36/10 20/35/10 17/43/10 18/44/10
f 13/23/12 14/26/12 16/30/12 15/29/12
o Cube.003_Cube.004
v -1.498655 0.132052 1.501959
v -1.498655 -0.132052 1.501959
v -0.497761 0.132052 1.501959
v -0.497761 -0.132052 1.501959
v -0.497761 0.132052 1.201732
v -0.497761 -0.132052 1.201732
v -1.209328 -0.132052 1.201731
v -1.209328 0.132052 1.201731
v -1.498655 0.132052 0.501838
v -1.498655 -0.132052 0.501838
v -1.209328 -0.132052 0.501838
v -1.209328 0.132052 0.501838
vt 0.625000 0.500000
vt 0.625000 0.750000
vt 0.375000 0.750000
vt 0.375000 0.500000
vt 0.375000 0.000000
vt 0.625000 0.000000
vt 0.625000 0.250000
vt 0.375000 0.250000
vt 0.312500 0.750000
vt 0.125000 0.750000
vt 0.125000 0.500000
vt 0.312500 0.750000
vt 0.625000 0.812500
vt 0.375000 0.812500
vt 0.375000 0.812500
vt 0.625000 0.812500
vt 0.875000 0.500000
vt 0.875000 0.750000
vt 0.687500 0.750000
vt 0.687500 0.750000
vt 0.625000 1.000000
vt 0.375000 1.000000
vn -1.0000 0.0000 -0.0000
vn 1.0000 0.0000 0.0000
vn 0.0000 -1.0000 0.0000
vn 0.0000 0.0000 -1.0000
vn 0.0000 1.0000 0.0000
vn -0.0000 0.0000 1.0000
usemtl Material.004
s off
f 25/45/13 33/46/13 34/47/13 26/48/13
f 30/49/14 29/50/14 27/51/14 28/52/14
f 31/53/15 30/54/15 28/55/15 26/48/15 34/47/15 35/56/15
f 32/57/14 31/58/14 35/59/14 36/60/14
f 34/47/16 33/46/16 36/60/16 35/59/16
f 25/45/17 27/61/17 29/62/17 32/63/17 36/64/17 33/46/17
f 31/58/16 32/57/16 29/65/16 30/66/16
f 25/45/18 26/48/18 28/52/18 27/51/18
o Cube.002_Cube.003
v -1.501958 0.132052 -1.498655
v -1.501958 -0.132052 -1.498655
v -1.501959 0.132052 -0.497761
v -1.501959 -0.132052 -0.497761
v -1.201731 0.132052 -0.497761
v -1.201731 -0.132052 -0.497761
v -1.201731 -0.132052 -1.209327
v -1.201731 0.132052 -1.209327
v -0.501837 0.132052 -1.498655
v -0.501837 -0.132052 -1.498655
v -0.501837 -0.132052 -1.209327
v -0.501837 0.132052 -1.209327
vt 0.625000 0.500000
vt 0.625000 0.750000
vt 0.375000 0.750000
vt 0.375000 0.500000
vt 0.375000 0.000000
vt 0.625000 0.000000
vt 0.625000 0.250000
vt 0.375000 0.250000
vt 0.312500 0.750000
vt 0.125000 0.750000
vt 0.125000 0.500000
vt 0.312500 0.750000
vt 0.625000 0.812500
vt 0.375000 0.812500
vt 0.375000 0.812500
vt 0.625000 0.812500
vt 0.875000 0.500000
vt 0.875000 0.750000
vt 0.687500 0.750000
vt 0.687500 0.750000
vt 0.625000 1.000000
vt 0.375000 1.000000
vn 0.0000 0.0000 -1.0000
vn 0.0000 0.0000 1.0000
vn 0.0000 -1.0000 0.0000
vn 1.0000 0.0000 0.0000
vn 0.0000 1.0000 0.0000
vn -1.0000 0.0000 -0.0000
usemtl Material.003
s off
f 37/67/19 45/68/19 46/69/19 38/70/19
f 42/71/20 41/72/20 39/73/20 40/74/20
f 43/75/21 42/76/21 40/77/21 38/70/21 46/69/21 47/78/21
f 44/79/20 43/80/20 47/81/20 48/82/20
f 46/69/22 45/68/22 48/82/22 47/81/22
f 37/67/23 39/83/23 41/84/23 44/85/23 48/86/23 45/68/23
f 43/80/22 44/79/22 41/87/22 42/88/22
f 37/67/24 38/70/24 40/74/24 39/73/24
